<svg xmlns="http://www.w3.org/2000/svg" width="69" height="68" fill="none"><g clip-path="url(#a)"><path fill="#fff" d="M12.833 23.534a67.102 67.102 0 0 1 2.151-.677c-.12-.491-.225-.983-.332-1.474-1.633-7.916-.557-14.277 3.068-16.376 3.493-2.005 9.19.08 14.955 5.1.571.492 1.129 1.01 1.66 1.527.359-.345.73-.69 1.102-1.022 6.044-5.366 12.1-7.624 15.726-5.512 3.48 2.019 4.515 8.009 3.054 15.5a44.276 44.276 0 0 1-.491 2.217c.85.24 1.687.505 2.47.784 7.092 2.457 12.179 6.335 12.179 10.346 0 4.144-5.419 8.3-12.79 10.824-.598.2-1.195.399-1.806.571.2.797.372 1.58.531 2.39 1.395 7.372.306 13.216-3.174 15.221-3.586 2.072-9.616-.053-15.486-5.193-.465-.411-.93-.837-1.395-1.288a42.087 42.087 0 0 1-1.806 1.647c-5.684 4.887-11.302 6.866-14.768 4.86-3.587-2.071-4.755-8.353-3.241-16.003.12-.584.252-1.182.398-1.793-.425-.12-.836-.252-1.248-.385C5.927 42.26.375 38.158.375 33.947c0-4.024 5.233-7.929 12.458-10.413Zm17.97-11.275c-4.941-4.303-9.55-5.99-11.648-4.782-2.245 1.289-3.108 6.495-1.7 13.335.093.451.186.89.305 1.328a67.979 67.979 0 0 1 8.938-1.408 67.114 67.114 0 0 1 5.658-7.052 51.687 51.687 0 0 0-1.554-1.421Zm15.366 28.58a91.455 91.455 0 0 1-2.099 3.44 60.11 60.11 0 0 0 6.163-.995 62.042 62.042 0 0 0-2.165-5.91 87.957 87.957 0 0 1-1.9 3.466Zm4.024-15.976a65.995 65.995 0 0 0-6.056-1.036 78.627 78.627 0 0 1 2.045 3.373 78.583 78.583 0 0 1 1.886 3.453 63.333 63.333 0 0 0 2.125-5.79Zm-3.64 9.15a83.46 83.46 0 0 0-2.841-5.392 80.12 80.12 0 0 0-3.24-5.166 83.301 83.301 0 0 0-6.097-.226c-2.072 0-4.117.08-6.096.226a92.792 92.792 0 0 0-3.227 5.14 90.486 90.486 0 0 0-2.883 5.365 88.142 88.142 0 0 0 2.87 5.419 90.733 90.733 0 0 0 3.213 5.18 83.59 83.59 0 0 0 6.123.212c2.085 0 4.104-.066 6.056-.186a80.763 80.763 0 0 0 6.123-10.572Zm-23.985 6.8a91.617 91.617 0 0 1-1.94-3.546 61.667 61.667 0 0 0-2.244 5.884c2.059.465 4.144.823 6.243 1.062a88.835 88.835 0 0 1-2.059-3.4Zm-1.913-10.16a110.33 110.33 0 0 1 1.926-3.48 86.293 86.293 0 0 1 2.032-3.346 61.104 61.104 0 0 0-6.096 1.062 58.765 58.765 0 0 0 2.139 5.764Zm13.693-14.941a58.317 58.317 0 0 0-3.93 4.755c2.629-.12 5.272-.12 7.901 0a67.042 67.042 0 0 0-3.97-4.755ZM49.755 7.57c-2.232-1.301-7.186.558-12.405 5.18-.332.292-.664.611-1.01.93a67.488 67.488 0 0 1 5.698 7.052c3.002.266 5.977.73 8.925 1.381.173-.677.319-1.368.465-2.058 1.249-6.428.425-11.276-1.673-12.485Zm3.254 35.01c.557-.16 1.102-.332 1.647-.518 2.828-.89 6.042-2.298 8.367-4.144a5.96 5.96 0 0 0 2.496-3.971c0-2.43-4.196-5.538-10.253-7.65a46.079 46.079 0 0 0-2.297-.73 70.62 70.62 0 0 1-3.254 8.446 72.604 72.604 0 0 1 3.294 8.567ZM37.523 55.595a24.309 24.309 0 0 0 7.49 4.689 5.878 5.878 0 0 0 4.689.172c2.111-1.222 2.988-5.91 1.793-12.219a41.129 41.129 0 0 0-.492-2.217 66.428 66.428 0 0 1-9.018 1.301 70.092 70.092 0 0 1-5.737 7.092c.425.412.85.81 1.275 1.182Zm-3.254-3.227a62.827 62.827 0 0 0 4.024-4.821c-1.275.053-2.59.08-3.918.08a80.79 80.79 0 0 1-4.038-.093 57.25 57.25 0 0 0 3.932 4.834ZM16.91 56.352a5.902 5.902 0 0 0 2.192 4.157c2.111 1.222 6.614-.371 11.475-4.542a56.701 56.701 0 0 0 1.686-1.527 65.7 65.7 0 0 1-5.604-7.119 65.457 65.457 0 0 1-9.058-1.394c-.133.544-.253 1.089-.359 1.62a24.21 24.21 0 0 0-.332 8.805Zm-2.417-14.277c.372.12.744.24 1.129.345a67.456 67.456 0 0 1 3.387-8.473 67.127 67.127 0 0 1-3.254-8.354c-.69.2-1.355.412-1.993.624C7.573 28.342 3.23 31.503 3.23 33.92c0 2.603 4.636 5.964 11.263 8.155Zm19.882-1.992A6.082 6.082 0 0 1 28.292 34a6.082 6.082 0 0 1 6.083-6.083A6.082 6.082 0 0 1 40.458 34a6.082 6.082 0 0 1-6.083 6.083Z"/></g><defs><clipPath id="a"><path fill="#fff" d="M68.375 0h-68v68h68z"/></clipPath></defs></svg>