<svg xmlns="http://www.w3.org/2000/svg" width="86" height="68" fill="none"><path fill="#fff" d="M50.132 25.718c0-3.355-2.36-5.207-6.504-5.207h-7.623v10.81h6.428c4.961-.016 7.699-2.02 7.699-5.603Zm27.753-1.943c-1.437-4.691-1.648-10.445-1.482-14.894C76.569 4.251 72.97 0 68.13 0H18.4c-4.855 0-8.44 4.266-8.273 8.881.151 4.449-.045 10.203-1.482 14.894-1.452 4.706-3.887 7.682-7.895 8.062v4.326c3.993.38 6.443 3.356 7.895 8.062 1.437 4.691 1.649 10.445 1.482 14.894C9.961 63.749 13.56 68 18.4 68h49.715c4.855 0 8.44-4.266 8.273-8.881-.151-4.449.045-10.203 1.482-14.894 1.452-4.706 3.887-7.682 7.88-8.062v-4.326c-3.978-.38-6.428-3.356-7.865-8.062Zm-32.79 28.314H30.288V15.911H45.02c6.548 0 10.844 3.552 10.844 9.018 0 3.84-2.889 7.272-6.58 7.864v.197c5.022.547 8.395 4.039 8.395 8.852 0 6.391-4.734 10.247-12.584 10.247Zm-1.512-16.502h-7.578v11.902h7.91c5.173 0 7.91-2.08 7.91-5.997 0-3.901-2.813-5.905-8.242-5.905Z"/></svg>