<svg xmlns="http://www.w3.org/2000/svg" width="52" height="68" fill="none"><path fill="#fff" d="M1.984 12.723C1.984 5.698 7.682 0 14.708 0h21.834c7.026 0 12.724 5.698 12.724 12.723 0 4.45-2.285 8.368-5.751 10.639A12.696 12.696 0 0 1 49.265 34c0 7.026-5.697 12.723-12.723 12.723h-.279a12.647 12.647 0 0 1-8.553-3.307v11.728C27.71 62.263 21.866 68 14.774 68c-7.012 0-12.79-5.684-12.79-12.723 0-4.45 2.285-8.368 5.738-10.639A12.716 12.716 0 0 1 1.984 34c0-4.45 2.285-8.367 5.738-10.638a12.716 12.716 0 0 1-5.738-10.639ZM23.54 25.447h-8.832A8.548 8.548 0 0 0 6.155 34c0 4.702 3.798 8.527 8.5 8.553H23.54V25.447ZM27.71 34a8.548 8.548 0 0 0 8.553 8.553h.28c4.714 0 8.552-3.825 8.552-8.553 0-4.728-3.838-8.553-8.553-8.553h-.279A8.548 8.548 0 0 0 27.71 34ZM14.708 46.723h-.053c-4.702.027-8.5 3.852-8.5 8.554 0 4.714 3.878 8.553 8.62 8.553 4.82 0 8.765-3.905 8.765-8.686v-8.42h-8.832Zm0-42.553a8.548 8.548 0 0 0-8.553 8.553 8.548 8.548 0 0 0 8.553 8.554h8.832V4.17h-8.832ZM27.71 21.277h8.832c4.715 0 8.553-3.825 8.553-8.554 0-4.728-3.838-8.553-8.553-8.553H27.71v17.107Z"/></svg>