<svg width="69" height="68" viewBox="0 0 69 68" fill="none" xmlns="http://www.w3.org/2000/svg">
<path d="M0.875 0V68H68.875V0H0.875ZM37.8804 53.0339C37.8804 59.6518 33.9946 62.6723 28.333 62.6723C23.2179 62.6723 20.258 60.0312 18.7402 56.8286L23.9464 53.6866C24.9482 55.4625 25.8589 56.9652 28.0598 56.9652C30.1545 56.9652 31.4902 56.1455 31.4902 52.9429V31.2223H37.8804V53.0339ZM52.9982 62.6723C47.0634 62.6723 43.2232 59.8491 41.3563 56.1455L46.5625 53.1402C47.9286 55.3714 49.7196 57.0259 52.8616 57.0259C55.5027 57.0259 57.2027 55.7054 57.2027 53.8688C57.2027 51.683 55.4723 50.9089 52.5429 49.6188L50.9491 48.9357C46.3348 46.9777 43.2839 44.5036 43.2839 39.2973C43.2839 34.5009 46.942 30.858 52.6339 30.858C56.7018 30.858 59.6161 32.2696 61.7107 35.9732L56.7321 39.1607C55.6393 37.2027 54.4554 36.4286 52.6188 36.4286C50.7518 36.4286 49.5679 37.6125 49.5679 39.1607C49.5679 41.0732 50.7518 41.8473 53.4991 43.0464L55.0929 43.7295C60.5268 46.0518 63.5777 48.4348 63.5777 53.7777C63.5777 59.5152 59.0545 62.6723 52.9982 62.6723Z" fill="white"/>
</svg>
