<svg xmlns="http://www.w3.org/2000/svg" width="97" height="68" fill="none"><path fill="#fff" d="M52.988 31.003h-9.914v-9.014h9.914v9.014Zm0-31.003h-9.914v9.211h9.914V0Zm11.73 21.974h-9.915v9.014h9.914v-9.014ZM41.273 11.032h-9.915v9.12h9.915v-9.12Zm11.714 0h-9.914v9.12h9.914v-9.12Zm41.517 15.175c-2.16-1.472-7.14-2.003-10.964-1.274-.495-3.642-2.505-6.814-6.165-9.667l-2.1-1.411-1.394 2.124c-2.76 4.22-3.51 11.17-.555 15.752-1.305.713-3.87 1.685-7.26 1.624H.867c-1.305 7.709.87 17.725 6.6 24.599C13.03 64.616 21.37 68 32.273 68c23.609 0 41.083-11.002 49.257-30.988 3.21.061 10.14.016 13.694-6.859.225-.38.99-2.003 1.275-2.595l-1.995-1.35Zm-76.66-4.233H7.946v9.014h9.914v-9.014h-.015Zm11.715 0h-9.915v9.014h9.915v-9.014Zm11.714 0h-9.915v9.014h9.915v-9.014ZM29.56 11.032h-9.915v9.12h9.915v-9.12Z"/></svg>