<svg xmlns="http://www.w3.org/2000/svg" width="68" height="68" fill="none"><path fill="#fff" d="m8.195 22.498 13.48 36.922C12.245 54.852 5.751 45.183 5.751 34c0-4.104.876-7.982 2.444-11.502Zm44.877 10.08c0-3.492-1.249-5.91-2.324-7.795-1.435-2.324-2.776-4.303-2.776-6.628 0-2.603 1.965-5.02 4.741-5.02.12 0 .24.013.372.027C48.052 8.553 41.358 5.737 34 5.737c-9.868 0-18.554 5.06-23.614 12.737.664.027 1.288.04 1.82.04 2.948 0 7.53-.358 7.53-.358 1.527-.093 1.7 2.151.186 2.324 0 0-1.527.172-3.227.265l10.293 30.6 6.189-18.54-4.396-12.06c-1.528-.093-2.962-.265-2.962-.265-1.528-.093-1.342-2.418.172-2.325 0 0 4.662.36 7.438.36 2.948 0 7.53-.36 7.53-.36 1.528-.093 1.7 2.152.186 2.325 0 0-1.527.172-3.227.265L48.131 51.12l2.816-9.417c1.195-3.905 2.125-6.707 2.125-9.124Zm-18.58 3.892-8.474 24.637A28.285 28.285 0 0 0 34 62.263a28.09 28.09 0 0 0 9.377-1.607 2.124 2.124 0 0 1-.2-.386l-8.686-23.8Zm24.304-16.03c.12.903.186 1.86.186 2.908 0 2.87-.531 6.083-2.151 10.12l-8.633 24.956c8.407-4.9 14.051-13.998 14.051-24.424 0-4.914-1.248-9.536-3.453-13.56ZM66.938 34c0 18.169-14.782 32.938-32.938 32.938C15.831 66.938 1.062 52.156 1.062 34 1.063 15.831 15.832 1.062 34 1.062c18.156 0 32.938 14.77 32.938 32.938Zm-1.515 0C65.423 16.668 51.32 2.577 34 2.577 16.668 2.577 2.577 16.668 2.577 34S16.68 65.423 34 65.423c17.332 0 31.423-14.091 31.423-31.423Z"/></svg>