<svg width="32" height="32" viewBox="0 0 32 32" fill="none" xmlns="http://www.w3.org/2000/svg">
<g clip-path="url(#clip0_501_6)">
<path d="M12.6898 12.46C12.0698 12.46 11.5398 12.72 11.0998 13.24C10.6598 13.76 10.3098 14.45 10.0698 15.32L13.2498 15.36C13.4798 14.61 13.5998 14.05 13.5998 13.68C13.5998 12.86 13.2998 12.46 12.6898 12.46Z" fill="#333a3f"/>
<path d="M16 0C7.16 0 0 7.16 0 16C0 24.84 7.16 32 16 32C24.84 32 32 24.84 32 16C32 7.16 24.84 0 16 0ZM15.76 20.25C15.45 20.53 15.1 20.75 14.72 20.93C14.34 21.11 13.96 21.2 13.6 21.2C13.05 21.2 12.67 21.06 12.46 20.79C12.25 20.51 12.15 20.11 12.15 19.57C12.15 19.03 12.36 18.11 12.78 16.81C11.49 16.75 10.55 16.73 9.97 16.73H9.77C9.6 17.77 9.52 18.85 9.52 19.99C9.52 20.49 9.33 20.84 8.95 21.03C8.77 21.11 8.6 21.19 8.44 21.27C8.28 21.34 8.1 21.38 7.92 21.38C7.45 21.38 7.22 20.96 7.22 20.12C7.22 19.28 7.41 18.2 7.79 16.89C7.36 16.91 7 16.96 6.69 17.01C6.38 17.06 6.13 17.08 5.95 17.08C5.77 17.08 5.68 17.03 5.68 16.94C5.68 16.66 5.91 16.38 6.37 16.09C6.84 15.8 7.47 15.58 8.26 15.43C9.14 13.2 10.21 11.71 11.48 10.96C11.95 10.68 12.44 10.54 12.96 10.54C13.89 10.55 14.57 10.8 14.98 11.3C15.4 11.79 15.61 12.45 15.61 13.27C15.61 14.09 15.37 15.15 14.86 16.46C14.67 16.96 14.5 17.42 14.34 17.83C14.18 18.24 14.1 18.57 14.1 18.82C14.1 19.07 14.12 19.26 14.16 19.39C14.2 19.52 14.29 19.59 14.43 19.59C14.68 19.59 15.27 19.1 16.21 18.13C16.38 17.94 16.5 17.85 16.57 17.85C16.73 17.85 16.81 18.06 16.81 18.49C16.81 18.72 16.71 19.01 16.52 19.34C16.33 19.67 16.07 19.97 15.76 20.25ZM25.26 19.74C25.03 20.12 24.71 20.45 24.32 20.7C23.54 21.2 22.53 21.46 21.31 21.46C20.44 21.46 19.48 21.26 18.41 20.87C17.7 20.61 17.18 20.3 16.84 19.93C16.67 19.75 16.59 19.58 16.59 19.4C16.59 19.22 16.68 19.13 16.86 19.13C17.04 19.13 17.36 19.19 17.85 19.31V19.3C17.85 18.57 17.93 17.83 18.1 17.06C18.39 15.73 18.73 14.68 19.11 13.92C19.52 13.08 19.94 12.66 20.38 12.66C20.5 12.66 20.56 12.87 20.56 13.29C20.56 13.71 20.52 14.14 20.44 14.58C20.36 15.02 20.28 15.45 20.19 15.87C20.1 16.29 20.02 16.68 19.94 17.02C19.86 17.37 19.82 17.61 19.82 17.76L19.68 19.88C20.23 20.03 20.7 20.1 21.08 20.1C21.46 20.1 21.81 20.04 22.12 19.9C22.89 19.57 23.28 19 23.28 18.19C23.28 17.7 23.23 17.3 23.14 16.99C23.05 16.67 22.88 16.39 22.64 16.15C22.43 16.2 22.25 16.22 22.11 16.22C21.2 16.22 20.76 15.99 20.78 15.53C20.78 15.1 21.21 14.89 22.08 14.89C22.29 14.89 22.48 14.91 22.67 14.96C22.98 14.65 23.13 14.19 23.13 13.56C23.13 12.48 22.41 11.94 20.96 11.94C20.2 11.94 19.49 12.1 18.8 12.43C18.55 12.55 18.32 12.66 18.12 12.77C17.92 12.87 17.74 12.92 17.57 12.92C17.4 12.92 17.32 12.87 17.32 12.77C17.32 12.65 17.41 12.47 17.6 12.23C17.79 11.99 18.05 11.75 18.38 11.51C19.24 10.91 20.21 10.61 21.31 10.6C22.74 10.6 23.79 10.88 24.46 11.45C25.04 11.93 25.33 12.58 25.33 13.4C25.33 14.35 24.86 15.08 23.93 15.58C24.83 16.09 25.36 16.72 25.53 17.47C25.59 17.73 25.61 18.08 25.61 18.51C25.61 18.95 25.49 19.36 25.26 19.74Z" fill="#333a3f"/>
</g>
<defs>
<clipPath id="clip0_501_6">
<rect width="32" height="32" fill="white"/>
</clipPath>
</defs>
</svg>
