<svg xmlns="http://www.w3.org/2000/svg" width="70" height="68" fill="none"><path fill="#fff" d="M23.704 54.754c0 .28-.32.506-.724.506-.459.042-.779-.183-.779-.506 0-.282.32-.507.724-.507.417-.042.779.183.779.507Zm-4.327-.633c-.097.281.181.604.599.689.361.14.779 0 .862-.282.084-.28-.18-.604-.598-.73-.362-.1-.765.041-.863.323Zm6.15-.24c-.404.1-.682.366-.64.69.041.28.403.464.82.365.403-.098.682-.365.64-.647-.042-.267-.417-.45-.82-.407ZM34.68 0C15.385 0 .625 14.806.625 34.309c0 15.594 9.71 28.937 23.58 33.634 1.78.323 2.406-.788 2.406-1.702 0-.871-.041-5.68-.041-8.633 0 0-9.738 2.109-11.783-4.19 0 0-1.586-4.092-3.868-5.147 0 0-3.185-2.207.223-2.165 0 0 3.464.281 5.37 3.628 3.046 5.427 8.152 3.866 10.141 2.938.32-2.25 1.224-3.81 2.226-4.738-7.777-.872-15.623-2.01-15.623-15.537 0-3.867 1.058-5.808 3.284-8.282-.362-.914-1.545-4.683.361-9.548 2.908-.914 9.599 3.797 9.599 3.797a32.355 32.355 0 0 1 8.736-1.195c2.963 0 5.954.407 8.737 1.195 0 0 6.69-4.725 9.598-3.797 1.906 4.88.724 8.634.362 9.548 2.226 2.488 3.59 4.429 3.59 8.282 0 13.568-8.195 14.651-15.971 15.537 1.28 1.11 2.365 3.22 2.365 6.524 0 4.739-.042 10.602-.042 11.755 0 .914.64 2.025 2.407 1.702 13.911-4.669 23.343-18.013 23.343-33.606C69.625 14.806 53.975 0 34.68 0ZM14.147 48.496c-.181.141-.14.464.097.731.223.226.543.324.723.141.181-.14.14-.464-.097-.731-.222-.225-.542-.323-.723-.14Zm-1.503-1.139c-.097.183.042.408.32.549.223.14.501.098.598-.099.098-.182-.041-.407-.32-.548-.278-.084-.5-.042-.598.098Zm4.508 5.006c-.223.183-.14.605.18.872.32.323.724.365.905.14.18-.182.097-.604-.181-.871-.306-.324-.724-.366-.904-.14Zm-1.586-2.067c-.223.14-.223.506 0 .83.222.323.598.464.779.323.222-.183.222-.548 0-.872-.195-.323-.557-.464-.78-.28Z"/></svg>